<svg xmlns="http://www.w3.org/2000/svg" width="1440" height="810" viewBox="0 0 1440 810" role="img" aria-labelledby="title desc">
  <title id="title">ForenSight Frontend Example Placeholder</title>
  <desc id="desc">Placeholder image for the frontend demo screenshot. Replace this file with your real UI screenshot while keeping the same path.</desc>
  <defs>
    <linearGradient id="bg" x1="0" y1="0" x2="1" y2="0">
      <stop offset="0%" stop-color="#f4f8ff"/>
      <stop offset="100%" stop-color="#e9f0fb"/>
    </linearGradient>
  </defs>
  <rect width="1440" height="810" fill="url(#bg)"/>
  <rect x="20" y="20" width="1400" height="70" rx="16" fill="#ffffff" stroke="#d2deef"/>
  <text x="48" y="62" font-family="Arial, sans-serif" font-size="34" font-weight="700" fill="#1a325c">ForenSight 前端示例界面</text>

  <rect x="20" y="105" width="250" height="680" rx="16" fill="#ffffff" stroke="#d2deef"/>
  <text x="44" y="145" font-family="Arial, sans-serif" font-size="24" font-weight="700" fill="#1a325c">运行配置</text>
  <rect x="44" y="170" width="202" height="46" rx="10" fill="#f6f9ff" stroke="#cfdcf1"/>
  <rect x="44" y="230" width="202" height="46" rx="10" fill="#f6f9ff" stroke="#cfdcf1"/>
  <rect x="44" y="290" width="202" height="46" rx="10" fill="#f6f9ff" stroke="#cfdcf1"/>
  <rect x="44" y="350" width="202" height="46" rx="10" fill="#f6f9ff" stroke="#cfdcf1"/>
  <rect x="44" y="425" width="202" height="52" rx="12" fill="#3579e3"/>
  <text x="110" y="458" font-family="Arial, sans-serif" font-size="20" font-weight="700" fill="#ffffff">运行分析</text>

  <rect x="285" y="105" width="1135" height="110" rx="16" fill="#ffffff" stroke="#d2deef"/>
  <text x="315" y="150" font-family="Arial, sans-serif" font-size="34" font-weight="700" fill="#1a325c">多智能体财务分析可视化</text>
  <text x="315" y="188" font-family="Arial, sans-serif" font-size="20" fill="#4f6488">建议将你的真实运行截图替换此占位图（路径：docs/images/frontend-example.svg）。</text>

  <rect x="285" y="230" width="1135" height="170" rx="16" fill="#ffffff" stroke="#d2deef"/>
  <text x="315" y="270" font-family="Arial, sans-serif" font-size="30" font-weight="700" fill="#1a325c">Agent 工作流画布</text>
  <g fill="#f6fbff" stroke="#9ec7b5">
    <rect x="315" y="294" width="210" height="82" rx="12"/>
    <rect x="540" y="294" width="210" height="82" rx="12"/>
    <rect x="765" y="294" width="210" height="82" rx="12"/>
    <rect x="990" y="294" width="210" height="82" rx="12"/>
    <rect x="1215" y="294" width="175" height="82" rx="12"/>
  </g>

  <rect x="285" y="415" width="640" height="370" rx="16" fill="#ffffff" stroke="#d2deef"/>
  <text x="315" y="455" font-family="Arial, sans-serif" font-size="30" font-weight="700" fill="#1a325c">步骤输出</text>
  <rect x="315" y="475" width="580" height="280" rx="12" fill="#f6f9ff" stroke="#cfdcf1"/>

  <rect x="940" y="415" width="480" height="370" rx="16" fill="#ffffff" stroke="#d2deef"/>
  <text x="970" y="455" font-family="Arial, sans-serif" font-size="30" font-weight="700" fill="#1a325c">多智能体协同看板</text>
  <g fill="#f6f9ff" stroke="#cfdcf1">
    <rect x="970" y="475" width="210" height="130" rx="12"/>
    <rect x="1195" y="475" width="195" height="130" rx="12"/>
    <rect x="970" y="620" width="210" height="130" rx="12"/>
    <rect x="1195" y="620" width="195" height="130" rx="12"/>
  </g>
</svg>
